<svg xmlns="http://www.w3.org/2000/svg" version="1.1" xmlns:xlink="http://www.w3.org/1999/xlink" xmlns:svgjs="http://svgjs.dev/svgjs" width="1500" height="215" viewBox="0 0 1500 215"><g transform="matrix(1,0,0,1,-0.9090909090909918,-1.825079682707468)"><svg viewBox="0 0 396 57" data-background-color="#13472e" preserveAspectRatio="xMidYMid meet" height="215" width="1500" xmlns="http://www.w3.org/2000/svg" xmlns:xlink="http://www.w3.org/1999/xlink"><g id="tight-bounds" transform="matrix(1,0,0,1,0.2400000000000091,0.48385833448523385)"><svg viewBox="0 0 395.52 56.032283331029554" height="56.032283331029554" width="395.52"><g><svg viewBox="0 0 474.1691513311347 67.17430277664839" height="56.032283331029554" width="395.52"><g transform="matrix(1,0,0,1,78.64915133113468,9.283858053791494)"><svg viewBox="0 0 395.52 48.6065866690654" height="48.6065866690654" width="395.52"><g id="textblocktransform"><svg viewBox="0 0 395.52 48.6065866690654" height="48.6065866690654" width="395.52" id="textblock"><g><svg viewBox="0 0 395.52 48.6065866690654" height="48.6065866690654" width="395.52"><g transform="matrix(1,0,0,1,0,0)"><svg width="395.52" viewBox="2.1 -36.41 309.56090908874495 37.26" height="48.6065866690654" data-palette-color="#92b19f"><g class="wordmark-text-0" data-fill-palette-color="primary" id="text-0"><path d="M21.4 0.25L21.4 0.25Q21.1 0.25 20.8 0.13 20.5 0 20.35-0.25L20.35-0.25 9.1-25.7 8.95-25.7 9.05-5.85Q9.1-4.9 9.22-4.03 9.35-3.15 10-2.58 10.65-2 12.2-2L12.2-2Q12.75-2 13.1-1.9 13.45-1.8 13.5-0.95L13.5-0.95Q13.5-0.55 13.28-0.2 13.05 0.15 12.6 0.15L12.6 0.15Q11.55 0.1 10.9 0.08 10.25 0.05 9.65 0.03 9.05 0 8.05 0L8.05 0Q6.55 0 5.63 0.03 4.7 0.05 3.1 0.15L3.1 0.15Q2.6 0.15 2.4-0.2 2.2-0.55 2.2-0.95L2.2-0.95Q2.25-1.8 2.6-1.9 2.95-2 3.45-2L3.45-2Q5.05-2 5.68-2.58 6.3-3.15 6.45-4.03 6.6-4.9 6.6-5.85L6.6-5.85 6.7-25.7Q6.7-27.3 6.35-28.08 6-28.85 5.25-29.18 4.5-29.5 3.35-29.7L3.35-29.7Q2.65-29.85 2.38-29.95 2.1-30.05 2.1-30.85L2.1-30.85Q2.1-31.7 2.7-31.78 3.3-31.85 4.1-31.85L4.1-31.85Q6.55-31.85 8.43-31.45 10.3-31.05 11.7-29.93 13.1-28.8 14-26.55L14-26.55 22.6-7.25 22.75-7.25 32.6-31.55 35.45-31.55Q36.95-31.55 38.38-31.6 39.8-31.65 41.4-31.7L41.4-31.7Q41.9-31.7 42.1-31.35 42.3-31 42.3-30.6L42.3-30.6Q42.25-29.75 41.9-29.65 41.55-29.55 41.05-29.55L41.05-29.55Q39.5-29.55 38.83-28.98 38.15-28.4 38-27.53 37.85-26.65 37.8-25.7L37.8-25.7 37.8-5.85Q37.85-4.9 38-4.03 38.15-3.15 38.83-2.58 39.5-2 41.05-2L41.05-2Q41.55-2 41.9-1.9 42.25-1.8 42.3-0.95L42.3-0.95Q42.3-0.55 42.1-0.2 41.9 0.15 41.4 0.15L41.4 0.15Q39.8 0.05 38.35 0.03 36.9 0 35.4 0L35.4 0Q32.5 0 29.25 0.15L29.25 0.15Q28.75 0.15 28.55-0.2 28.35-0.55 28.35-0.95L28.35-0.95Q28.4-1.8 28.75-1.9 29.1-2 29.6-2L29.6-2Q31.2-2 31.85-2.58 32.5-3.15 32.68-4.03 32.85-4.9 32.85-5.85L32.85-5.85 32.85-25.7 32.7-25.7 22.4-0.25Q22.3 0 22 0.13 21.7 0.25 21.4 0.25ZM52.85 0.6L52.85 0.6Q49.8 0.6 47.97-1.15 46.15-2.9 46.15-5.35L46.15-5.35Q46.15-7.9 47.47-9.35 48.8-10.8 50.97-11.5 53.15-12.2 55.72-12.45 58.3-12.7 60.75-12.85L60.75-12.85 60.75-16.8Q60.75-19.15 59.57-20.48 58.4-21.8 55.6-21.8L55.6-21.8Q54.2-21.8 52.97-20.9 51.75-20 51.75-18.3L51.75-18.3Q51.75-17.5 52.15-16.95 52.55-16.4 52.95-16.1 53.35-15.8 53.35-15.7L53.35-15.7Q53.35-15.5 52.77-14.98 52.2-14.45 51.2-14.45L51.2-14.45Q49.65-14.45 48.8-15.6 47.95-16.75 47.95-18.15L47.95-18.15Q47.95-20.05 49.12-21.15 50.3-22.25 52.15-22.75 54-23.25 55.9-23.25L55.9-23.25Q58.15-23.25 60.27-22.7 62.4-22.15 63.77-20.6 65.15-19.05 65.15-15.95L65.15-15.95 65.15-4.3Q65.2-3.8 65.4-3.1 65.6-2.4 66.17-1.88 66.75-1.35 67.75-1.35L67.75-1.35Q68.1-1.35 68.3-1.23 68.5-1.1 68.5-0.55L68.5-0.55Q68.5-0.1 68 0.15 67.5 0.4 66.85 0.5 66.2 0.6 65.75 0.6L65.75 0.6Q63.9 0.6 62.45-0.48 61-1.55 60.75-3.45L60.75-3.45Q59.65-1.45 57.47-0.43 55.3 0.6 52.85 0.6ZM54.45-2.1L54.45-2.1Q56.15-2.1 57.57-2.95 59-3.8 59.87-5.28 60.75-6.75 60.75-8.55L60.75-8.55 60.75-11.4Q55.6-11.05 53.4-9.75 51.2-8.45 51.2-5.5L51.2-5.5Q51.2-2.1 54.45-2.1ZM71.95 0.15L71.95 0.15Q71.59 0.15 71.37-0.18 71.15-0.5 71.15-0.85L71.15-0.85Q71.25-1.6 71.55-1.68 71.84-1.75 72.34-1.75L72.34-1.75Q73.75-1.75 74.25-2.23 74.75-2.7 74.82-3.5 74.9-4.3 74.9-5.15L74.9-5.15 74.9-16.6Q74.9-17.5 74.82-18.28 74.75-19.05 74.25-19.53 73.75-20 72.34-20L72.34-20Q71.9-20 71.52-20.13 71.15-20.25 71.15-21L71.15-21Q71.15-21.75 71.95-21.9L71.95-21.9Q74.25-22.25 75.47-22.6 76.7-22.95 77.32-23.2 77.95-23.45 78.45-23.5L78.45-23.5Q78.84-23.55 79.12-23.35 79.4-23.15 79.4-22.55L79.4-22.55 79.4-19.45 79.55-19.45Q81.25-21.1 83.05-22.18 84.84-23.25 86.34-23.25L86.34-23.25Q88.09-23.25 89.02-21.95 89.95-20.65 89.95-19.2L89.95-19.2Q89.95-17.95 89.15-16.78 88.34-15.6 86.75-15.6L86.75-15.6Q85.95-15.6 85.47-15.93 85-16.25 84.95-16.4L84.95-16.4Q84.95-16.5 85.42-17 85.9-17.5 85.9-18.25L85.9-18.25Q85.9-19.15 85.42-19.7 84.95-20.25 84.15-20.25L84.15-20.25Q83.3-20.25 81.97-19.4 80.65-18.55 79.45-17.35L79.45-17.35 79.45-5.15Q79.45-4.3 79.52-3.5 79.59-2.7 80.12-2.23 80.65-1.75 82.05-1.75L82.05-1.75Q82.5-1.75 82.82-1.68 83.15-1.6 83.2-0.85L83.2-0.85Q83.2-0.5 83-0.18 82.8 0.15 82.4 0.15L82.4 0.15Q80.95 0.05 79.72 0.03 78.5 0 77.15 0L77.15 0Q75.8 0 74.59 0.03 73.4 0.05 71.95 0.15ZM92.69 0.15L92.69 0.15Q92.29 0.15 92.09-0.18 91.89-0.5 91.89-0.85L91.89-0.85Q91.94-1.6 92.27-1.68 92.59-1.75 93.04-1.75L93.04-1.75Q94.44-1.75 94.97-2.23 95.49-2.7 95.57-3.5 95.64-4.3 95.64-5.15L95.64-5.15 95.64-29.5Q95.64-30.4 95.57-31.18 95.49-31.95 94.99-32.43 94.49-32.9 93.09-32.9L93.09-32.9Q92.64-32.9 92.27-33.02 91.89-33.15 91.89-33.9L91.89-33.9Q91.89-34.65 92.69-34.8L92.69-34.8Q94.99-35.15 96.22-35.5 97.44-35.85 98.09-36.1 98.74-36.35 99.24-36.4L99.24-36.4Q99.64-36.45 99.92-36.25 100.19-36.05 100.19-35.45L100.19-35.45 100.19-12.6Q102.39-13.05 103.79-14.45L103.79-14.45 107.99-18.75Q108.29-19.1 108.67-19.5 109.04-19.9 109.12-20.25 109.19-20.6 108.69-20.8 108.19-21 106.79-20.9L106.79-20.9Q106.24-21 106.19-21.8L106.19-21.8Q106.19-22.2 106.42-22.5 106.64-22.8 106.99-22.8L106.99-22.8Q108.14-22.75 109.77-22.7 111.39-22.65 112.49-22.65L112.49-22.65Q113.34-22.65 114.17-22.7 114.99-22.75 115.84-22.8L115.84-22.8Q116.24-22.8 116.44-22.5 116.64-22.2 116.64-21.8L116.64-21.8Q116.59-21.15 116.37-21.03 116.14-20.9 115.79-20.9L115.79-20.9Q113.84-20.9 112.64-20.2 111.44-19.5 109.94-17.95L109.94-17.95 105.74-13.65Q106.34-12.85 107.34-11.7 108.34-10.55 109.47-9.28 110.59-8 111.59-6.88 112.59-5.75 113.19-5.05L113.19-5.05Q114.64-3.5 115.62-2.68 116.59-1.85 118.04-1.75L118.04-1.75Q118.44-1.7 118.79-1.63 119.14-1.55 119.14-0.85L119.14-0.85Q119.14-0.5 118.97-0.18 118.79 0.15 118.34 0.15L118.34 0.15Q117.64 0.1 117.19 0.08 116.74 0.05 116.19 0.03 115.64 0 114.62 0 113.59 0 111.69 0L111.69 0Q109.94-1.9 107.67-4.55 105.39-7.2 103.14-9.8L103.14-9.8Q102.64-10.35 101.87-10.83 101.09-11.3 100.19-11.2L100.19-11.2 100.19-5.15Q100.19-4.3 100.27-3.5 100.34-2.7 100.87-2.23 101.39-1.75 102.74-1.75L102.74-1.75Q103.24-1.75 103.57-1.68 103.89-1.6 103.94-0.85L103.94-0.85Q103.94-0.5 103.74-0.18 103.54 0.15 103.14 0.15L103.14 0.15Q101.69 0.05 100.44 0.03 99.19 0 97.89 0L97.89 0Q96.54 0 95.34 0.03 94.14 0.05 92.69 0.15ZM132.84 0.6L132.84 0.6Q128.99 0.6 126.37-1.05 123.74-2.7 122.44-5.45 121.14-8.2 121.14-11.45L121.14-11.45Q121.14-13.65 121.92-15.73 122.69-17.8 124.14-19.53 125.59-21.25 127.64-22.25 129.69-23.25 132.29-23.25L132.29-23.25Q136.89-23.25 139.22-20.88 141.54-18.5 141.89-14.85L141.89-14.85Q141.89-13.1 140.92-12.55 139.94-12 138.39-12L138.39-12 126.24-12Q126.24-9.1 127.04-6.83 127.84-4.55 129.56-3.23 131.29-1.9 134.14-1.9L134.14-1.9Q136.24-1.9 137.74-2.8 139.24-3.7 140.64-5.95L140.64-5.95Q141.04-6.45 141.74-6L141.74-6Q142.14-5.8 142.24-5.38 142.34-4.95 142.14-4.65L142.14-4.65Q140.59-2.2 138.24-0.8 135.89 0.6 132.84 0.6ZM126.24-13.9L126.24-13.9 134.39-13.9Q135.59-13.9 136.31-14.38 137.04-14.85 137.09-16L137.09-16Q137.09-18.15 135.91-19.83 134.74-21.5 132.29-21.5L132.29-21.5Q129.79-21.5 128.12-19.5 126.44-17.5 126.24-13.9ZM154.99 0.85L154.99 0.85Q153.49 0.85 152.14 0.1 150.79-0.65 149.91-2.2 149.04-3.75 149.04-6.1L149.04-6.1 149.04-20.8 146.14-20.7Q145.79-20.7 145.61-20.98 145.44-21.25 145.44-21.6L145.44-21.6Q145.44-22.6 146.14-22.75L146.14-22.75Q147.99-23.1 148.94-23.93 149.89-24.75 150.41-25.9 150.94-27.05 151.39-28.4L151.39-28.4Q151.54-28.8 151.84-28.93 152.14-29.05 152.49-29.05L152.49-29.05Q152.79-29.05 153.16-28.9 153.54-28.75 153.54-28.35L153.54-28.35 153.19-22.65 159.04-23Q159.49-23.05 159.64-22.75 159.79-22.45 159.79-22.05L159.79-22.05Q159.79-21.55 159.61-21.05 159.44-20.55 159.19-20.55L159.19-20.55 153.59-20.7 153.59-5.5Q153.59-4.05 154.21-2.85 154.84-1.65 156.49-1.65L156.49-1.65Q157.04-1.65 157.74-1.75 158.44-1.85 159.24-2.2L159.24-2.2Q159.44-2.3 159.64-2.38 159.84-2.45 160.04-2.45L160.04-2.45Q160.44-2.45 160.64-2.13 160.84-1.8 160.99-1.45L160.99-1.45Q161.14-1 160.74-0.75L160.74-0.75Q159.19 0.25 157.89 0.55 156.59 0.85 154.99 0.85ZM166.13 0.15L166.13 0.15Q165.63 0.15 165.44-0.2 165.23-0.55 165.23-0.95L165.23-0.95Q165.28-1.8 165.63-1.9 165.98-2 166.48-2L166.48-2Q168.08-2 168.73-2.58 169.38-3.15 169.56-4.03 169.73-4.9 169.73-5.85L169.73-5.85 169.73-25.7Q169.73-26.65 169.56-27.53 169.38-28.4 168.73-28.98 168.08-29.55 166.48-29.55L166.48-29.55Q165.98-29.55 165.63-29.65 165.28-29.75 165.23-30.6L165.23-30.6Q165.23-31 165.44-31.35 165.63-31.7 166.13-31.7L166.13-31.7Q167.73-31.65 169.13-31.6 170.53-31.55 172.03-31.55L172.03-31.55 179.08-31.55Q181.98-31.55 183.66-31.13 185.33-30.7 186.58-29.9L186.58-29.9Q187.88-29.05 188.63-27.58 189.38-26.1 189.38-24.35L189.38-24.35Q189.38-22.1 188.33-20.58 187.28-19.05 185.71-18.18 184.13-17.3 182.63-16.95L182.63-16.95 182.63-16.8Q185.28-16.85 187.33-15.85 189.38-14.85 190.58-13.2 191.78-11.55 191.83-9.6L191.83-9.6Q191.94-6.75 190.63-4.9 189.33-3.05 187.26-1.95 185.19-0.85 182.76-0.4 180.33 0.05 178.08 0.05L178.08 0.05 172.08 0Q170.58 0 169.16 0.03 167.73 0.05 166.13 0.15ZM174.69-29.7L174.69-17.8 176.78-17.8Q177.78-17.8 179.03-17.9 180.28-18 181.44-18.53 182.58-19.05 183.31-20.28 184.03-21.5 184.03-23.75L184.03-23.75Q184.03-26.4 182.76-28.05 181.48-29.7 178.19-29.7L178.19-29.7 174.69-29.7ZM178.28-1.95L178.28-1.95Q180.53-2 182.38-2.7 184.23-3.4 185.33-5.05 186.44-6.7 186.44-9.6L186.44-9.6Q186.28-11.2 185.36-12.6 184.44-14 182.36-14.9 180.28-15.8 176.73-15.8L176.73-15.8 174.69-15.8 174.69-5.85Q174.69-3.35 175.44-2.65 176.19-1.95 178.28-1.95ZM202.58 0.6L202.58 0.6Q199.53 0.6 197.71-1.15 195.88-2.9 195.88-5.35L195.88-5.35Q195.88-7.9 197.21-9.35 198.53-10.8 200.71-11.5 202.88-12.2 205.46-12.45 208.03-12.7 210.48-12.85L210.48-12.85 210.48-16.8Q210.48-19.15 209.31-20.48 208.13-21.8 205.33-21.8L205.33-21.8Q203.93-21.8 202.71-20.9 201.48-20 201.48-18.3L201.48-18.3Q201.48-17.5 201.88-16.95 202.28-16.4 202.68-16.1 203.08-15.8 203.08-15.7L203.08-15.7Q203.08-15.5 202.51-14.98 201.93-14.45 200.93-14.45L200.93-14.45Q199.38-14.45 198.53-15.6 197.68-16.75 197.68-18.15L197.68-18.15Q197.68-20.05 198.86-21.15 200.03-22.25 201.88-22.75 203.73-23.25 205.63-23.25L205.63-23.25Q207.88-23.25 210.01-22.7 212.13-22.15 213.51-20.6 214.88-19.05 214.88-15.95L214.88-15.95 214.88-4.3Q214.93-3.8 215.13-3.1 215.33-2.4 215.91-1.88 216.48-1.35 217.48-1.35L217.48-1.35Q217.83-1.35 218.03-1.23 218.23-1.1 218.23-0.55L218.23-0.55Q218.23-0.1 217.73 0.15 217.23 0.4 216.58 0.5 215.93 0.6 215.48 0.6L215.48 0.6Q213.63 0.6 212.18-0.48 210.73-1.55 210.48-3.45L210.48-3.45Q209.38-1.45 207.21-0.43 205.03 0.6 202.58 0.6ZM204.18-2.1L204.18-2.1Q205.88-2.1 207.31-2.95 208.73-3.8 209.61-5.28 210.48-6.75 210.48-8.55L210.48-8.55 210.48-11.4Q205.33-11.05 203.13-9.75 200.93-8.45 200.93-5.5L200.93-5.5Q200.93-2.1 204.18-2.1ZM230.13 0.6L230.13 0.6Q226.28 0.6 223.71-0.78 221.13-2.15 221.13-4.75L221.13-4.75Q221.13-6.2 222.01-7.1 222.88-8 224.28-8L224.28-8Q225.18-8 225.76-7.53 226.33-7.05 226.33-6.85L226.33-6.85Q226.33-6.7 225.76-6.18 225.18-5.65 225.18-4.5L225.18-4.5Q225.18-3.1 226.51-2.18 227.83-1.25 230.53-1.25L230.53-1.25Q232.88-1.25 234.21-2.27 235.53-3.3 235.53-5.15L235.53-5.15Q235.53-6.65 234.56-7.48 233.58-8.3 232.06-8.8 230.53-9.3 228.81-9.8 227.08-10.3 225.53-11.05 223.98-11.8 223.01-13.13 222.03-14.45 222.03-16.65L222.03-16.65Q222.03-18.9 223.38-20.35 224.73-21.8 226.83-22.53 228.93-23.25 231.08-23.25L231.08-23.25Q232.93-23.25 234.58-22.73 236.23-22.2 237.31-21.15 238.38-20.1 238.38-18.5L238.38-18.5Q238.38-17.25 237.58-16.25 236.78-15.25 235.38-15.25L235.38-15.25Q234.48-15.25 233.91-15.73 233.33-16.2 233.33-16.4L233.33-16.4Q233.33-16.5 233.71-16.78 234.08-17.05 234.43-17.53 234.78-18 234.78-18.75L234.78-18.75Q234.68-20.2 233.38-20.9 232.08-21.6 230.48-21.6L230.48-21.6Q228.73-21.6 227.23-20.75 225.73-19.9 225.73-18.3L225.73-18.3Q225.73-16.85 226.36-16.05 226.98-15.25 228.36-14.68 229.73-14.1 231.93-13.4L231.93-13.4Q234.13-12.7 235.81-11.95 237.48-11.2 238.41-9.98 239.33-8.75 239.33-6.65L239.33-6.65Q239.33-4.55 238.13-2.9 236.93-1.25 234.86-0.33 232.78 0.6 230.13 0.6ZM243.33 0.15L243.33 0.15Q242.93 0.15 242.73-0.18 242.53-0.5 242.53-0.85L242.53-0.85Q242.58-1.6 242.9-1.68 243.23-1.75 243.68-1.75L243.68-1.75Q245.08-1.75 245.6-2.23 246.13-2.7 246.2-3.5 246.28-4.3 246.28-5.15L246.28-5.15 246.28-29.5Q246.28-30.4 246.2-31.18 246.13-31.95 245.63-32.43 245.13-32.9 243.73-32.9L243.73-32.9Q243.28-32.9 242.9-33.02 242.53-33.15 242.53-33.9L242.53-33.9Q242.53-34.65 243.33-34.8L243.33-34.8Q245.63-35.15 246.85-35.5 248.08-35.85 248.73-36.1 249.38-36.35 249.88-36.4L249.88-36.4Q250.28-36.45 250.55-36.25 250.83-36.05 250.83-35.45L250.83-35.45 250.83-12.6Q253.03-13.05 254.43-14.45L254.43-14.45 258.63-18.75Q258.93-19.1 259.3-19.5 259.68-19.9 259.75-20.25 259.83-20.6 259.33-20.8 258.83-21 257.43-20.9L257.43-20.9Q256.88-21 256.83-21.8L256.83-21.8Q256.83-22.2 257.05-22.5 257.28-22.8 257.63-22.8L257.63-22.8Q258.78-22.75 260.4-22.7 262.03-22.65 263.13-22.65L263.13-22.65Q263.98-22.65 264.8-22.7 265.63-22.75 266.48-22.8L266.48-22.8Q266.88-22.8 267.08-22.5 267.28-22.2 267.28-21.8L267.28-21.8Q267.23-21.15 267-21.03 266.78-20.9 266.43-20.9L266.43-20.9Q264.48-20.9 263.28-20.2 262.08-19.5 260.58-17.95L260.58-17.95 256.38-13.65Q256.98-12.85 257.98-11.7 258.98-10.55 260.1-9.28 261.23-8 262.23-6.88 263.23-5.75 263.83-5.05L263.83-5.05Q265.28-3.5 266.25-2.68 267.23-1.85 268.68-1.75L268.68-1.75Q269.08-1.7 269.43-1.63 269.78-1.55 269.78-0.85L269.78-0.85Q269.78-0.5 269.6-0.18 269.43 0.15 268.98 0.15L268.98 0.15Q268.28 0.1 267.83 0.08 267.38 0.05 266.83 0.03 266.28 0 265.25 0 264.23 0 262.33 0L262.33 0Q260.58-1.9 258.3-4.55 256.03-7.2 253.78-9.8L253.78-9.8Q253.28-10.35 252.5-10.83 251.73-11.3 250.83-11.2L250.83-11.2 250.83-5.15Q250.83-4.3 250.9-3.5 250.98-2.7 251.5-2.23 252.03-1.75 253.38-1.75L253.38-1.75Q253.88-1.75 254.2-1.68 254.53-1.6 254.58-0.85L254.58-0.85Q254.58-0.5 254.38-0.18 254.18 0.15 253.78 0.15L253.78 0.15Q252.33 0.05 251.08 0.03 249.83 0 248.53 0L248.53 0Q247.18 0 245.98 0.03 244.78 0.05 243.33 0.15ZM283.48 0.6L283.48 0.6Q279.63 0.6 277-1.05 274.38-2.7 273.08-5.45 271.78-8.2 271.78-11.45L271.78-11.45Q271.78-13.65 272.55-15.73 273.33-17.8 274.78-19.53 276.23-21.25 278.28-22.25 280.33-23.25 282.93-23.25L282.93-23.25Q287.53-23.25 289.85-20.88 292.18-18.5 292.53-14.85L292.53-14.85Q292.53-13.1 291.55-12.55 290.58-12 289.03-12L289.03-12 276.88-12Q276.88-9.1 277.68-6.83 278.48-4.55 280.2-3.23 281.93-1.9 284.78-1.9L284.78-1.9Q286.88-1.9 288.38-2.8 289.88-3.7 291.28-5.95L291.28-5.95Q291.68-6.45 292.38-6L292.38-6Q292.78-5.8 292.88-5.38 292.98-4.95 292.78-4.65L292.78-4.65Q291.23-2.2 288.88-0.8 286.53 0.6 283.48 0.6ZM276.88-13.9L276.88-13.9 285.03-13.9Q286.23-13.9 286.95-14.38 287.68-14.85 287.73-16L287.73-16Q287.73-18.15 286.55-19.83 285.38-21.5 282.93-21.5L282.93-21.5Q280.43-21.5 278.75-19.5 277.08-17.5 276.88-13.9ZM305.62 0.85L305.62 0.85Q304.12 0.85 302.77 0.1 301.42-0.65 300.55-2.2 299.67-3.75 299.67-6.1L299.67-6.1 299.67-20.8 296.77-20.7Q296.42-20.7 296.25-20.98 296.07-21.25 296.07-21.6L296.07-21.6Q296.07-22.6 296.77-22.75L296.77-22.75Q298.62-23.1 299.57-23.93 300.52-24.75 301.05-25.9 301.57-27.05 302.02-28.4L302.02-28.4Q302.17-28.8 302.47-28.93 302.77-29.05 303.12-29.05L303.12-29.05Q303.42-29.05 303.8-28.9 304.17-28.75 304.17-28.35L304.17-28.35 303.82-22.65 309.67-23Q310.12-23.05 310.27-22.75 310.42-22.45 310.42-22.05L310.42-22.05Q310.42-21.55 310.25-21.05 310.07-20.55 309.82-20.55L309.82-20.55 304.22-20.7 304.22-5.5Q304.22-4.05 304.85-2.85 305.47-1.65 307.12-1.65L307.12-1.65Q307.67-1.65 308.37-1.75 309.07-1.85 309.87-2.2L309.87-2.2Q310.07-2.3 310.27-2.38 310.47-2.45 310.67-2.45L310.67-2.45Q311.07-2.45 311.27-2.13 311.47-1.8 311.62-1.45L311.62-1.45Q311.77-1 311.37-0.75L311.37-0.75Q309.82 0.25 308.52 0.55 307.22 0.85 305.62 0.85Z" fill="#92b19f" data-fill-palette-color="primary"></path></g></svg></g></svg></g></svg></g></svg></g><g><svg viewBox="0 0 67.17430277664839 67.17430277664839" height="67.17430277664839" width="67.17430277664839"><g><svg xmlns="http://www.w3.org/2000/svg" xmlns:xlink="http://www.w3.org/1999/xlink" version="1.1" x="0" y="0" viewBox="68.5 68.5 375 375" enable-background="new 0 0 512 512" xml:space="preserve" height="67.17430277664839" width="67.17430277664839" class="icon-icon-0" data-fill-palette-color="accent" id="icon-0"><path d="M443.5 256V218.5H349.7V181H387.2V68.5H124.8V181H162.3V218.5H68.5V256H106V406H68.5V443.5H443.5V406H406V256zM162.3 106H349.8V143.5H162.3zM199.8 181H312.3V218.5H199.8zM237.3 406V331H274.8V406zM368.5 406H312.2V293.5H199.8V406H143.5V256H368.5z" fill="#d09632" data-fill-palette-color="accent"></path></svg></g></svg></g></svg></g><defs></defs></svg><rect width="395.52" height="56.032283331029554" fill="none" stroke="none" visibility="hidden"></rect></g></svg></g></svg>